<svg xmlns="http://www.w3.org/2000/svg" viewBox="0 0 100 100" fill="none">
  <defs>
    <linearGradient id="max-g" x1="12" y1="88" x2="88" y2="12" gradientUnits="userSpaceOnUse">
      <stop stop-color="#00BFFF"/>
      <stop offset="0.45" stop-color="#471AFF"/>
      <stop offset="1" stop-color="#9500FF"/>
    </linearGradient>
  </defs>
  <path fill="url(#max-g)" d="M50.757 0.262c27.536 0 49.129 22.336 49.129 49.885 0 27.55-22.279 49.343-48.865 49.343-9.435 0-14.007-1.329-21.371-6.543-.507-.357-1.2-.264-1.629.193-5.664 6.043-20.171 10.286-20.836 2.036 0-14.386-7.185-23.729-7.185-45.3C0 21.555 23.221.262 50.757.262Zm.772 24.55c-13.065-.686-23.265 8.385-25.515 22.571-1.864 11.75 1.436 26.072 4.265 26.793 1.2.307 4.078-1.9 6.178-3.879.393-.371.993-.435 1.45-.15 3.272 2 6.972 3.5 11.05 3.714 13.415.7 25.3-9.8 26.008-23.214.7-13.415-10.022-25.143-23.436-25.843v.008Z"/>
</svg>
